<svg xmlns="http://www.w3.org/2000/svg" width="19.25" height="15.807" viewBox="0 0 19.25 15.807">
  <path id="Vector" d="M7.9,0a.875.875,0,0,1,.867.756l.008.119V16.256L14.312,10.7a.875.875,0,0,1,1.325,1.136l-.085.1L8.524,18.993a.878.878,0,0,1-.145.118l-.047.028-.043.023-.065.028-.051.018-.066.018-.046.01-.07.01-.054,0H7.87l-.051,0,.085,0a.879.879,0,0,1-.162-.015L7.7,19.227c-.026-.006-.052-.013-.077-.022l-.039-.014c-.026-.01-.051-.021-.076-.034l-.035-.019-.056-.034-.039-.027-.01-.008a.88.88,0,0,1-.087-.077h0L.255,11.934A.875.875,0,0,1,1.4,10.615l.1.085,5.533,5.555V.875A.875.875,0,0,1,7.9,0Z" transform="translate(0 15.807) rotate(-90)" fill="#fff"/>
</svg>
