<svg id="Frame" xmlns="http://www.w3.org/2000/svg" width="24" height="24" viewBox="0 0 24 24">
  <rect id="Frame-2" data-name="Frame" width="24" height="24" fill="rgba(0,0,0,0)"/>
  <path id="Vector" d="M14.939,0A5.056,5.056,0,0,1,20,5.05v7.9A5.058,5.058,0,0,1,14.939,18H5.06A5.057,5.057,0,0,1,0,12.95V5.05A5.05,5.05,0,0,1,5.06,0ZM16.07,5.2a.76.76,0,0,0-.561.2L11,9A1.566,1.566,0,0,1,9,9L4.5,5.4A.765.765,0,0,0,3.429,6.47l.131.13,4.55,3.55a3.149,3.149,0,0,0,3.909,0L16.53,6.54l.08-.08a.773.773,0,0,0-.011-1,.841.841,0,0,0-.529-.26Z" transform="translate(2 3)" fill="#6640ff"/>
</svg>
