<svg id="Frame" xmlns="http://www.w3.org/2000/svg" width="120" height="39" viewBox="0 0 120 39">
  <rect id="Frame-2" data-name="Frame" width="120" height="39" fill="none"/>
  <g id="Group">
    <path id="Vector" d="M18.559,6.369c6.4,3.2,11.883,3.8,16.164,3.344A18.35,18.35,0,0,1,36,12.666c-3.739.721-9.112.609-15.785-2.728A29.154,29.154,0,0,0,4.343,6.565,18.568,18.568,0,0,1,7.895,3.321,27.465,27.465,0,0,1,18.559,6.369Zm1.651-3.3A34.78,34.78,0,0,0,13.813.59a18.493,18.493,0,0,1,18.41,5.564A26.6,26.6,0,0,1,20.21,3.067ZM36.923,18.462q0,.442-.021.878-.187.046-.38.088c-3.754.834-9.319.878-16.312-2.618C12.434,12.922,6,12.878,1.446,13.89q-.481.107-.932.228a18.322,18.322,0,0,1,1.165-3.36q.277-.071.568-.135C6,9.789,11.566,9.744,18.559,13.241c7.48,3.74,13.718,3.923,18.236,3.031a18.662,18.662,0,0,1,.128,2.189ZM18.461,36.923A18.462,18.462,0,0,1,0,18.462q0-.159,0-.318a18.406,18.406,0,0,1,2.244-.649c3.754-.834,9.319-.878,16.312,2.618,7.211,3.605,13.267,3.905,17.741,3.123A18.469,18.469,0,0,1,18.461,36.923Z" transform="translate(0.094 0.577)" fill="#6640ff" fill-rule="evenodd"/>
    <path id="Vector-2" data-name="Vector" d="M0,18.985V.26H11.092V2.978H2.718V8.257H9.531v2.731H2.718v8Zm13.435,0V4.941h2.419V8.348l-.338-.442a5.161,5.161,0,0,1,.676-1.235,3.788,3.788,0,0,1,.962-.936,4.109,4.109,0,0,1,1.183-.6,5.673,5.673,0,0,1,2.679-.2V7.49a4.4,4.4,0,0,0-1.534-.1,3.357,3.357,0,0,0-1.534.533,3.448,3.448,0,0,0-1.053,1.04,4.42,4.42,0,0,0-.546,1.365,7.06,7.06,0,0,0-.169,1.573v7.087Zm11.6,6.242,2.718-7.4.039,2.185L21.667,4.941H24.5l4.577,11.638h-.832L32.616,4.941h2.757l-7.75,20.285ZM44,19.375a5.668,5.668,0,0,1-3.381-.975,6.129,6.129,0,0,1-2.068-2.666,9.717,9.717,0,0,1-.7-3.784,9.879,9.879,0,0,1,.689-3.784A5.99,5.99,0,0,1,40.6,5.526a5.622,5.622,0,0,1,3.355-.975,5.9,5.9,0,0,1,3.407.975,6.272,6.272,0,0,1,2.224,2.64,8.815,8.815,0,0,1,.78,3.784,8.957,8.957,0,0,1-.78,3.8,6.307,6.307,0,0,1-2.2,2.653A5.817,5.817,0,0,1,44,19.375Zm-4.187-.39V8.881h.312V.26H37.4V18.985Zm3.81-2.068a3.371,3.371,0,0,0,2.146-.663,3.917,3.917,0,0,0,1.274-1.781,7.065,7.065,0,0,0,.429-2.523,6.92,6.92,0,0,0-.429-2.5,3.878,3.878,0,0,0-1.287-1.781,3.568,3.568,0,0,0-2.224-.663,3.414,3.414,0,0,0-2.106.624,3.7,3.7,0,0,0-1.222,1.742,7.8,7.8,0,0,0-.39,2.575,7.8,7.8,0,0,0,.39,2.575,3.627,3.627,0,0,0,1.235,1.755A3.532,3.532,0,0,0,43.626,16.917ZM53.493,2.64V0H56.21V2.64Zm0,16.345V4.941H56.21V18.985Zm5.062,0,5.253-7.1L58.672,4.941H61.9l3.5,4.824,3.459-4.824h3.224l-5.136,6.944,5.266,7.1H68.971L65.395,14l-3.6,4.98Z" transform="translate(47.051 9.823)"/>
  </g>
</svg>
