<svg xmlns="http://www.w3.org/2000/svg" width="36.923" height="36.923" viewBox="0 0 36.923 36.923">
  <g id="Group" transform="translate(-0.094 -0.577)">
    <path id="Vector" d="M18.559,6.369c6.4,3.2,11.883,3.8,16.164,3.344A18.35,18.35,0,0,1,36,12.666c-3.739.721-9.112.609-15.785-2.728A29.154,29.154,0,0,0,4.343,6.565,18.568,18.568,0,0,1,7.895,3.321,27.465,27.465,0,0,1,18.559,6.369Zm1.651-3.3A34.78,34.78,0,0,0,13.813.59a18.493,18.493,0,0,1,18.41,5.564A26.6,26.6,0,0,1,20.21,3.067ZM36.923,18.462q0,.442-.021.878-.187.046-.38.088c-3.754.834-9.319.878-16.312-2.618C12.434,12.922,6,12.878,1.446,13.89q-.481.107-.932.228a18.322,18.322,0,0,1,1.165-3.36q.277-.071.568-.135C6,9.789,11.566,9.744,18.559,13.241c7.48,3.74,13.718,3.923,18.236,3.031a18.662,18.662,0,0,1,.128,2.189ZM18.461,36.923A18.462,18.462,0,0,1,0,18.462q0-.159,0-.318a18.406,18.406,0,0,1,2.244-.649c3.754-.834,9.319-.878,16.312,2.618,7.211,3.605,13.267,3.905,17.741,3.123A18.469,18.469,0,0,1,18.461,36.923Z" transform="translate(0.094 0.577)" fill="#6640ff" fill-rule="evenodd"/>
  </g>
</svg>
